<svg xmlns="http://www.w3.org/2000/svg" viewBox="1220 580.345 20 19.655">
  <defs>
    <style>
      .cls-1 {
        fill: #262626;
      }
    </style>
  </defs>
  <g id="calendar_2_" data-name="calendar (2)" transform="translate(1220 579.845)">
    <path id="Path_27" data-name="Path 27" class="cls-1" d="M14.793,1.879A1.727,1.727,0,0,0,13.1.5a.345.345,0,1,0,0,.69,1.034,1.034,0,0,1,0,2.069.345.345,0,1,0,0,.69,1.727,1.727,0,0,0,1.689-1.379H19.31v3.1H.69v-3.1H6.552a.345.345,0,1,0,0-.69H5.926A1.033,1.033,0,1,1,6.9,3.259a.345.345,0,1,0,0,.69A1.724,1.724,0,1,0,5.207,1.879H0V20.155H20V1.879ZM19.31,19.466H.69V6.362H19.31Z"/>
    <path id="Path_28" data-name="Path 28" class="cls-1" d="M12.1,25.158a.345.345,0,0,0,.488,0l1.48-1.48v7.788H13.034a.345.345,0,1,0,0,.69h2.759a.345.345,0,1,0,0-.69H14.758V22.846a.348.348,0,0,0-.027-.132.344.344,0,0,0-.45-.187.35.35,0,0,0-.112.074L12.1,24.671A.344.344,0,0,0,12.1,25.158Z" transform="translate(-7.862 -14.415)"/>
    <path id="Path_29" data-name="Path 29" class="cls-1" d="M33.414,31.466a1.726,1.726,0,0,1-1.724-1.724.345.345,0,0,0-.69,0,2.414,2.414,0,1,0,4.828,0V24.914a2.419,2.419,0,1,0-.69,1.686v3.141A1.726,1.726,0,0,1,33.414,31.466Zm0-4.828a1.724,1.724,0,1,1,1.724-1.724A1.726,1.726,0,0,1,33.414,26.638Z" transform="translate(-20.31 -14.414)"/>
    <path id="Path_30" data-name="Path 30" class="cls-1" d="M25.345,1.19a1.034,1.034,0,1,1,0,2.069.345.345,0,1,0,0,.69,1.724,1.724,0,1,0,0-3.448.345.345,0,1,0,0,.69Z" transform="translate(-16.379)"/>
    <path id="Path_31" data-name="Path 31" class="cls-1" d="M31.345,1.19a1.034,1.034,0,1,1,0,2.069.345.345,0,1,0,0,.69,1.724,1.724,0,1,0,0-3.448.345.345,0,1,0,0,.69Z" transform="translate(-20.31)"/>
  </g>
</svg>
