<svg xmlns="http://www.w3.org/2000/svg" viewBox="425 74.759 527.706 64.96">
  <defs>
    <style>
      .cls-1 {
        fill: #fff;
      }
    </style>
  </defs>
  <g id="SpaceX-Logo" transform="translate(425 74.759)">
    <path id="Path_9" data-name="Path 9" class="cls-1" d="M94.485,15.094H49.863L48.21,16.33v39.7H60.562V41.14l1.179-1.057H94.486c8.268,0,12.144-2.224,12.144-7.932V23.037c0-5.717-3.876-7.943-12.146-7.943m0,14.675c0,2.689-1.779,3.248-5.655,3.248H61.877l-1.316-1.279v-8.5l1.179-1.079H88.83c3.876,0,5.655.552,5.655,3.254Z" transform="translate(28.501 8.923)"/>
    <path id="Path_10" data-name="Path 10" class="cls-1" d="M106.314,22.791l10.629,15.573-.589,1.508H92.847l-6,7.382h34.99l2.425,1.477,5.432,7.493h14.136L112.845,14.775" transform="translate(51.342 8.735)"/>
    <path id="Path_11" data-name="Path 11" class="cls-1" d="M192.085,42.865V31.847l1.271-1.1H217V23.734h-37.48V50.926h55.287V43.944h-41.4" transform="translate(106.132 14.031)"/>
    <rect id="Rectangle_6" data-name="Rectangle 6" class="cls-1" width="55.871" height="7.714" transform="translate(285.656 24.017)"/>
    <path id="Path_12" data-name="Path 12" class="cls-1" d="M145.521,22.4h45.011c-.694-5.723-4.245-7.311-13.255-7.311H145.042c-10.166,0-13.409,1.984-13.409,9.678V46.352c0,7.7,3.243,9.686,13.409,9.686h32.236c9.141,0,12.642-1.717,12.881-7.654H145.521L144.2,47.138v-23.9" transform="translate(77.819 8.921)"/>
    <path id="Path_13" data-name="Path 13" class="cls-1" d="M46.674,31.046H13.929l-.964-1.061v-7l.959-.741H58.067l.6-1.475c-1.5-3.868-5.4-5.673-12.628-5.673H15.379c-10.16,0-13.407,1.984-13.407,9.678v4.525c0,7.7,3.248,9.684,13.407,9.684H48.05l1.026.9V47.2l-.837,1.142H10.868v-.035H1.079s-1.12.562-1.077.824c.835,5.381,4.5,6.906,13.278,6.906H46.674c10.158,0,13.5-1.984,13.5-9.686V40.715c0-7.689-3.345-9.67-13.5-9.67" transform="translate(0 8.922)"/>
    <path id="Path_14" data-name="Path 14" class="cls-1" d="M243.924,14.988h-18.38l-1,1.9,20.412,14.879c3.866-2.239,8.074-4.508,12.65-6.747" transform="translate(132.749 8.861)"/>
    <path id="Path_15" data-name="Path 15" class="cls-1" d="M247.075,35.671l17.941,13.083h18.6l.77-1.733L257.6,27.413q-5.337,3.917-10.526,8.258" transform="translate(146.067 16.206)"/>
    <path id="Path_16" data-name="Path 16" class="cls-1" d="M241.706,64.93H225.077l-1.4-2.2C234.979,51.812,285.55,5.014,395.475,0c0,0-92.266,3.112-153.769,64.93" transform="translate(132.231)"/>
  </g>
</svg>
