<svg xmlns="http://www.w3.org/2000/svg" viewBox="1218 359.667 21.818 20">
  <path id="users" d="M20.005,18.1l-3.474-1.737A.957.957,0,0,1,16,15.5V14.27c.083-.1.171-.218.261-.346a8.322,8.322,0,0,0,1.074-2.109,1.443,1.443,0,0,0,.846-1.315V9.045a1.45,1.45,0,0,0-.364-.955V6.157a3.26,3.26,0,0,0-.761-2.373,4.577,4.577,0,0,0-3.6-1.284,4.578,4.578,0,0,0-3.6,1.284A3.158,3.158,0,0,0,9.1,5.531a4.723,4.723,0,0,0-2.192-.485c-3.778,0-4,3.22-4,3.273V9.983a1.266,1.266,0,0,0-.364.847v1.256a1.3,1.3,0,0,0,.477,1.005,5.573,5.573,0,0,0,1.325,2.285v1a.79.79,0,0,1-.426.7L1.5,18.589A2.881,2.881,0,0,0,0,21.119V22.5H21.818V21.03A3.263,3.263,0,0,0,20.005,18.1ZM5.091,20.959v.814H.727v-.653a2.165,2.165,0,0,1,1.142-1.9L4.288,17.7a1.507,1.507,0,0,0,.786-1.324V15.069l-.116-.108A4.844,4.844,0,0,1,3.7,12.8l-.033-.144-.124-.08a.578.578,0,0,1-.267-.485V10.831a.636.636,0,0,1,.244-.427l.12-.108V8.339c.007-.1.2-2.567,3.273-2.567a3.786,3.786,0,0,1,2.182.6v1.72a1.45,1.45,0,0,0-.364.955V10.5a1.462,1.462,0,0,0,.037.325c.01.042.029.081.043.121a1.436,1.436,0,0,0,.064.182v0a1.457,1.457,0,0,0,.4.5l.006.02c.022.083.045.166.069.247l.029.095c.005.017.011.034.017.051.013.039.025.078.038.117.022.064.045.129.071.2.011.03.024.057.035.086.03.076.06.149.091.222.008.017.014.036.022.053l.02.046c.009.021.019.04.029.061.036.078.071.153.107.226l.017.036c.023.045.046.088.069.132.039.075.078.145.116.214l.056.1c.052.089.1.172.151.248l.031.049c.088.136.164.247.228.333l.045.062.026.035v1.2a.961.961,0,0,1-.5.844l-.962.525-.168-.015-.068.144L6.8,18.078A3.28,3.28,0,0,0,5.091,20.959Zm16,.814H5.818v-.814a2.551,2.551,0,0,1,1.331-2.241l3.244-1.769a1.689,1.689,0,0,0,.88-1.483V14h0L11.2,13.92l-.014-.016s-.023-.028-.06-.076l-.007-.009c-.019-.025-.042-.055-.068-.091v0c-.054-.075-.122-.173-.2-.291l-.005-.008c-.036-.056-.073-.116-.112-.181l-.009-.015c-.082-.138-.169-.294-.256-.467h0c-.046-.093-.092-.19-.137-.292h0l-.019-.042h0c-.02-.045-.04-.093-.06-.142l-.022-.055c-.019-.048-.038-.1-.059-.151-.037-.1-.072-.2-.105-.309l-.02-.065-.007-.022c-.034-.115-.067-.232-.095-.353l-.033-.144-.124-.08a.725.725,0,0,1-.337-.61V9.045A.718.718,0,0,1,9.7,8.509l.12-.108V6.008L9.808,6a2.517,2.517,0,0,1,.59-1.737,3.905,3.905,0,0,1,3.056-1.036A3.915,3.915,0,0,1,16.5,4.256a2.559,2.559,0,0,1,.59,1.833l0,2.312.12.108a.716.716,0,0,1,.244.536V10.5a.723.723,0,0,1-.517.691l-.181.056-.058.18A7.612,7.612,0,0,1,15.668,13.5a4.784,4.784,0,0,1-.3.392l-.091.1v1.5a1.679,1.679,0,0,0,.933,1.51l3.474,1.737a2.539,2.539,0,0,1,1.411,2.284Z" transform="translate(1218 357.167)"/>
</svg>
